<?xml version="1.0" encoding="UTF-8" standalone="no"?>
<svg
   width="312.254"
   height="104.393"
   viewBox="0 0 82.617 27.621"
   version="1.1"
   id="svg10"
   sodipodi:docname="logo.svg"
   inkscape:version="1.1 (c4e8f9ed74, 2021-05-24)"
   xmlns:inkscape="http://www.inkscape.org/namespaces/inkscape"
   xmlns:sodipodi="http://sodipodi.sourceforge.net/DTD/sodipodi-0.dtd"
   xmlns="http://www.w3.org/2000/svg"
   xmlns:svg="http://www.w3.org/2000/svg">
  <defs
     id="defs14" />
  <sodipodi:namedview
     id="namedview12"
     pagecolor="#ffffff"
     bordercolor="#666666"
     borderopacity="1.0"
     inkscape:pageshadow="2"
     inkscape:pageopacity="0.0"
     inkscape:pagecheckerboard="0"
     showgrid="false"
     inkscape:zoom="4.1536698"
     inkscape:cx="156.127"
     inkscape:cy="52.242959"
     inkscape:window-width="1920"
     inkscape:window-height="1012"
     inkscape:window-x="0"
     inkscape:window-y="32"
     inkscape:window-maximized="1"
     inkscape:current-layer="svg10" />
  <path
     d="M8.38.006L.067 14.33H5.73l1.353-2.393h9.993l1.199 2.393h5.74L15.916.006zm3.276 3.42h.872l3.1 5.37-7.1.05zM22.906 7.336h5.039v3.944h-5.032zM29.542 14.33V.005h8.663l4.58 9.132 4.49-9.132h8.535V14.33h-4.569V3.625h-.58L44.79 14.33h-4.246L35.036 3.664h-.802V14.33zM78.024 0a4.49 4.49 0 00-.19.006h-8.78c-4.727 0-5.164 1.336-5.164 5.164 0 3.827 3.64 3.641 3.64 3.641h8.338s2.257-.014 2.257 1.303-1.36 1.17-1.36 1.17h-6.952c-1.79 0-1.534-1.784-1.534-1.784l-4.46-.003v2.262c0 2.442 3.965 2.524 3.965 2.524h9.666c4.828 0 5.094-1.209 5.094-5.094 0-3.886-3.69-3.691-3.69-3.691h-9.2c-.306 0-1.28-.124-1.28-1.28 0-1.154 1.717-.99 1.717-.99h6.675c1.145 0 .788 1.363.788 1.363h4.693c-.011-.178-.021-.692-.021-2.05 0-2.442-3.362-2.551-4.202-2.54zm4.223 4.591v.002l.002-.002zM62.557 7.315h-4.913v3.845h4.89z"
     fill="rgb(220, 20, 60)"
     id="path2" />
  <g
     aria-label="elektronik"
     transform="matrix(1.30882 0 0 .76405 -2.485 -1.975)"
     id="text6"
     style="font-weight:700;font-size:13.852px;line-height:1.25;font-family:'Source Sans Pro';-inkscape-font-specification:'Source Sans Pro Bold';stroke-width:0.346">
    <path
       id="path849"
       sodipodi:type="inkscape:offset"
       inkscape:radius="0"
       inkscape:original="M 55.478516 25.107422 C 54.772064 25.107422 54.273437 25.536276 54.273438 26.201172 C 54.273438 26.87992 54.772064 27.308594 55.478516 27.308594 C 56.184968 27.308594 56.683594 26.87992 56.683594 26.201172 C 56.683594 25.536276 56.184968 25.107422 55.478516 25.107422 z M 9.4902344 25.480469 L 9.4902344 32.933594 C 9.4902344 34.374202 9.9750476 35.330078 11.443359 35.330078 C 11.914327 35.330078 12.274282 35.245404 12.509766 35.148438 L 12.259766 33.570312 C 12.14895 33.598013 12.094831 33.597656 12.011719 33.597656 C 11.845495 33.597656 11.623047 33.458889 11.623047 33.015625 L 11.623047 25.480469 L 9.4902344 25.480469 z M 20.708984 25.480469 L 20.708984 35.162109 L 22.830078 35.162109 L 22.830078 33.458984 L 23.619141 32.544922 L 25.115234 35.162109 L 27.441406 35.162109 L 24.878906 31.146484 L 27.275391 28.279297 L 24.919922 28.279297 L 22.871094 30.882812 L 22.830078 30.882812 L 22.830078 25.480469 L 20.708984 25.480469 z M 58.291016 25.480469 L 58.291016 35.162109 L 60.410156 35.162109 L 60.410156 33.458984 L 61.199219 32.544922 L 62.695312 35.162109 L 65.021484 35.162109 L 62.458984 31.146484 L 64.855469 28.279297 L 62.501953 28.279297 L 60.451172 30.882812 L 60.410156 30.882812 L 60.410156 25.480469 L 58.291016 25.480469 z M 28.535156 26.173828 L 28.287109 28.279297 L 27.234375 28.347656 L 27.234375 29.955078 L 28.162109 29.955078 L 28.162109 32.613281 C 28.162109 34.233965 28.86829 35.330078 30.585938 35.330078 C 31.264685 35.330078 31.792192 35.191254 32.152344 35.052734 L 31.818359 33.556641 C 31.638283 33.625901 31.403273 33.652344 31.181641 33.652344 C 30.669117 33.652344 30.308594 33.361649 30.308594 32.585938 L 30.308594 29.955078 L 31.929688 29.955078 L 31.929688 28.279297 L 30.308594 28.279297 L 30.308594 26.173828 L 28.535156 26.173828 z M 5.1542969 28.113281 C 3.5059089 28.113281 1.8984375 29.482719 1.8984375 31.712891 C 1.8984375 34.012323 3.4216879 35.330078 5.3886719 35.330078 C 6.2059399 35.330078 7.1488366 35.065258 7.8691406 34.552734 L 7.1757812 33.265625 C 6.6909612 33.542665 6.1920314 33.695312 5.6933594 33.695312 C 4.8206834 33.695312 4.1704905 33.293318 3.9765625 32.365234 L 8.0351562 32.365234 C 8.0767122 32.171306 8.1191406 31.811684 8.1191406 31.423828 C 8.1191406 29.553808 7.1489849 28.113281 5.1542969 28.113281 z M 16.375 28.113281 C 14.726612 28.113281 13.119141 29.482719 13.119141 31.712891 C 13.119141 34.012323 14.642391 35.330078 16.609375 35.330078 C 17.426643 35.330078 18.36954 35.065258 19.089844 34.552734 L 18.396484 33.265625 C 17.911664 33.542665 17.412734 33.695312 16.914062 33.695312 C 16.041387 33.695312 15.391194 33.293318 15.197266 32.365234 L 19.255859 32.365234 C 19.297419 32.171306 19.337891 31.811684 19.337891 31.423828 C 19.337891 29.553808 18.369688 28.113281 16.375 28.113281 z M 37.166016 28.113281 C 36.473416 28.113281 35.711563 28.542619 35.212891 29.470703 L 35.158203 29.470703 L 35.005859 28.279297 L 33.259766 28.279297 L 33.259766 35.162109 L 35.392578 35.162109 L 35.392578 31.228516 C 35.75273 30.314284 36.376148 29.982422 36.888672 29.982422 C 37.193416 29.982422 37.346367 30.010996 37.595703 30.066406 L 37.996094 28.25 C 37.802166 28.15304 37.567724 28.113281 37.166016 28.113281 z M 41.708984 28.113281 C 39.963632 28.113281 38.34375 29.427311 38.34375 31.712891 C 38.34375 33.998471 39.963632 35.330078 41.708984 35.330078 C 43.468188 35.330078 45.089844 33.998471 45.089844 31.712891 C 45.089844 29.427311 43.468188 28.113281 41.708984 28.113281 z M 50.601562 28.113281 C 49.659627 28.113281 48.968323 28.582639 48.400391 29.136719 L 48.34375 29.136719 L 48.191406 28.279297 L 46.447266 28.279297 L 46.447266 35.162109 L 48.580078 35.162109 L 48.580078 30.550781 C 49.00949 30.162925 49.300336 29.927734 49.785156 29.927734 C 50.339236 29.927734 50.587891 30.21804 50.587891 31.173828 L 50.587891 35.162109 L 52.736328 35.162109 L 52.736328 30.896484 C 52.736328 29.178836 52.097579 28.113281 50.601562 28.113281 z M 54.412109 28.279297 L 54.412109 35.162109 L 56.544922 35.162109 L 56.544922 28.279297 L 54.412109 28.279297 z M 5.2089844 29.732422 C 5.9846964 29.732422 6.2890625 30.24508 6.2890625 30.923828 L 3.9492188 30.923828 C 4.0877387 30.120412 4.5994964 29.732422 5.2089844 29.732422 z M 16.429688 29.732422 C 17.205399 29.732422 17.509766 30.24508 17.509766 30.923828 L 15.169922 30.923828 C 15.308442 30.120412 15.8202 29.732422 16.429688 29.732422 z M 41.708984 29.830078 C 42.5124 29.830078 42.886719 30.577027 42.886719 31.712891 C 42.886719 32.862607 42.5124 33.597656 41.708984 33.597656 C 40.905568 33.597656 40.53125 32.862607 40.53125 31.712891 C 40.53125 30.577027 40.905568 29.830078 41.708984 29.830078 z "
       d="m 55.478516,25.107422 c -0.706452,0 -1.205079,0.428854 -1.205078,1.09375 0,0.678748 0.498626,1.107422 1.205078,1.107422 0.706452,0 1.205078,-0.428674 1.205078,-1.107422 0,-0.664896 -0.498626,-1.09375 -1.205078,-1.09375 z M 9.4902344,25.480469 v 7.453125 c 0,1.440608 0.4848132,2.396484 1.9531246,2.396484 0.470968,0 0.830923,-0.08467 1.066407,-0.18164 l -0.25,-1.578126 c -0.110816,0.0277 -0.164935,0.02734 -0.248047,0.02734 -0.166224,0 -0.388672,-0.138767 -0.388672,-0.582031 v -7.535156 z m 11.2187496,0 v 9.68164 h 2.121094 v -1.703125 l 0.789063,-0.914062 1.496093,2.617187 h 2.326172 l -2.5625,-4.015625 2.396485,-2.867187 h -2.355469 l -2.048828,2.603515 h -0.04102 v -5.402343 z m 37.582032,0 v 9.68164 h 2.11914 v -1.703125 l 0.789063,-0.914062 1.496093,2.617187 h 2.326172 l -2.5625,-4.015625 2.396485,-2.867187 h -2.353516 l -2.050781,2.603515 h -0.04102 v -5.402343 z m -29.75586,0.693359 -0.248047,2.105469 -1.052734,0.06836 v 1.607422 h 0.927734 v 2.658203 c 0,1.620684 0.706181,2.716797 2.423829,2.716797 0.678747,0 1.206254,-0.138824 1.566406,-0.277344 l -0.333985,-1.496093 c -0.180076,0.06926 -0.415086,0.0957 -0.636718,0.0957 -0.512524,0 -0.873047,-0.290695 -0.873047,-1.066406 v -2.63086 h 1.621094 V 28.279297 H 30.308594 V 26.173828 Z M 5.1542969,28.113281 c -1.648388,0 -3.2558594,1.369438 -3.2558594,3.59961 0,2.299432 1.5232504,3.617187 3.4902344,3.617187 0.817268,0 1.7601647,-0.26482 2.4804687,-0.777344 L 7.1757812,33.265625 c -0.48482,0.27704 -0.9837498,0.429687 -1.4824218,0.429687 -0.872676,0 -1.5228689,-0.401994 -1.7167969,-1.330078 h 4.0585937 c 0.041556,-0.193928 0.083984,-0.55355 0.083984,-0.941406 0,-1.87002 -0.9701557,-3.310547 -2.9648437,-3.310547 z m 11.2207031,0 c -1.648388,0 -3.255859,1.369438 -3.255859,3.59961 0,2.299432 1.52325,3.617187 3.490234,3.617187 0.817268,0 1.760165,-0.26482 2.480469,-0.777344 l -0.69336,-1.287109 c -0.48482,0.27704 -0.98375,0.429687 -1.482422,0.429687 -0.872675,0 -1.522868,-0.401994 -1.716796,-1.330078 h 4.058593 c 0.04156,-0.193928 0.08203,-0.55355 0.08203,-0.941406 0,-1.87002 -0.968203,-3.310547 -2.962891,-3.310547 z m 20.791016,0 c -0.6926,0 -1.454453,0.429338 -1.953125,1.357422 h -0.05469 l -0.152344,-1.191406 h -1.746093 v 6.882812 h 2.132812 v -3.933593 c 0.360152,-0.914232 0.98357,-1.246094 1.496094,-1.246094 0.304744,0 0.457695,0.02857 0.707031,0.08398 L 37.996094,28.25 c -0.193928,-0.09696 -0.42837,-0.136719 -0.830078,-0.136719 z m 4.542968,0 c -1.745352,0 -3.365234,1.31403 -3.365234,3.59961 0,2.28558 1.619882,3.617187 3.365234,3.617187 1.759204,0 3.38086,-1.331607 3.38086,-3.617187 0,-2.28558 -1.621656,-3.59961 -3.38086,-3.59961 z m 8.892578,0 c -0.941935,0 -1.633239,0.469358 -2.201171,1.023438 h -0.05664 l -0.152344,-0.857422 h -1.74414 v 6.882812 h 2.132812 v -4.611328 c 0.429412,-0.387856 0.720258,-0.623047 1.205078,-0.623047 0.55408,0 0.802735,0.290306 0.802735,1.246094 v 3.988281 h 2.148437 v -4.265625 c 0,-1.717648 -0.638749,-2.783203 -2.134766,-2.783203 z m 3.810547,0.166016 v 6.882812 h 2.132813 V 28.279297 Z M 5.2089844,29.732422 c 0.775712,0 1.0800781,0.512658 1.0800781,1.191406 H 3.9492188 c 0.1385199,-0.803416 0.6502776,-1.191406 1.2597656,-1.191406 z m 11.2207036,0 c 0.775711,0 1.080078,0.512658 1.080078,1.191406 h -2.339844 c 0.13852,-0.803416 0.650278,-1.191406 1.259766,-1.191406 z m 25.279296,0.09766 c 0.803416,0 1.177735,0.746949 1.177735,1.882813 0,1.149716 -0.374319,1.884765 -1.177735,1.884765 -0.803416,0 -1.177734,-0.735049 -1.177734,-1.884765 0,-1.135864 0.374318,-1.882813 1.177734,-1.882813 z" />
  </g>
  <path
     d="M82.617 27.092H.287"
     fill="none"
     stroke="rgb(220, 20, 60)"
     stroke-width="1.058"
     id="path8" />
</svg>
