<svg width="512" height="512" xmlns="http://www.w3.org/2000/svg">
 <title/>

 <g>
  <title>background</title>
  <rect fill="none" id="canvas_background" height="402" width="582" y="-1" x="-1"/>
 </g>
 <g>
  <title fill="hsl(222, 80%, 56%)" stroke="hsl(222, 80%, 56%)">Layer 1</title>
  <path fill="hsl(222, 80%, 56%)" stroke="hsl(222, 80%, 56%)" id="svg_1" d="m262.12,378a15,15 0 0 1 -7.33,-1.91a230.8,230.8 0 0 1 -118.11,-201.21q0,-2.5 0.06,-5c0.8,-37.5 14.81,-69.11 40.52,-91.4c22.65,-19.66 52.79,-30.48 84.86,-30.48s62.2,10.82 84.88,30.47c25.71,22.29 39.72,53.9 40.52,91.4l0,0q0.06,2.5 0.06,5a230.8,230.8 0 0 1 -118.14,201.22a15,15 0 0 1 -7.32,1.91zm0,-300c-24.85,0 -48,8.21 -65.21,23.13c-19.13,16.59 -29.57,40.58 -30.18,69.38c0,1.45 0,2.91 0,4.37a200.76,200.76 0 0 0 95.44,170.73a200.75,200.75 0 0 0 95.43,-170.73c0,-1.46 0,-2.92 -0.05,-4.37l0,0c-0.61,-28.8 -11.05,-52.79 -30.18,-69.38c-17.25,-14.92 -40.37,-23.13 -65.25,-23.13z"/>
  <path fill="hsl(222, 80%, 56%)" stroke="hsl(222, 80%, 56%)" id="svg_2" d="m262.43,247.4a72.13,72.13 0 1 1 72.13,-72.13a72.21,72.21 0 0 1 -72.13,72.13zm0,-114.25a42.13,42.13 0 1 0 42.13,42.12a42.17,42.17 0 0 0 -42.13,-42.12z"/>
  <path fill="hsl(222, 80%, 56%)" stroke="hsl(222, 80%, 56%)" id="svg_3" d="m262.12,450c-40.47,0 -78.75,-8.06 -107.79,-22.69c-32.33,-16.31 -50.1,-39.12 -50.1,-64.31c0,-33.41 31.25,-62.26 83.6,-77.16a15,15 0 0 1 8.17,28.86c-37.55,10.69 -61.81,29.65 -61.81,48.3c0,27 52.52,57 127.89,57s127.92,-30 127.92,-57c0,-18.65 -24.26,-37.61 -61.81,-48.3a15,15 0 0 1 8.21,-28.86c52.35,14.9 83.6,43.75 83.6,77.16c0,25.19 -17.79,48 -50.1,64.31c-29.04,14.63 -67.32,22.69 -107.78,22.69z"/>
 </g>
</svg>