<svg width="128" height="128" xmlns="http://www.w3.org/2000/svg">
 <title/>

 <g>
  <title>background</title>
  <rect fill="none" id="canvas_background" height="402" width="582" y="-1" x="-1"/>
 </g>
 <g>
  <title fill="hsl(222, 80%, 56%)" stroke="hsl(222, 80%, 56%)">Layer 1</title>
  <path fill="hsl(222, 80%, 56%)" stroke="hsl(222, 80%, 56%)" id="svg_1" d="m116.73,31.83a3,3 0 0 0 -4.2,-0.61l-48.39,36.12a1,1 0 0 1 -1.2,0l-47.44,-36.28a3,3 0 1 0 -3.64,4.77l37.3,28.53l-36.89,27.8a3,3 0 1 0 3.61,4.84l38.23,-28.86l5.18,4a7,7 0 0 0 8.43,0.06l5.44,-4.06l38.68,28.86a3,3 0 1 0 3.59,-4.81l-37.26,-27.84l37.95,-28.35a3,3 0 0 0 0.61,-4.17z"/>
  <path fill="hsl(222, 80%, 56%)" stroke="hsl(222, 80%, 56%)" id="svg_2" d="m113,19l-98,0a15,15 0 0 0 -15,15l0,60a15,15 0 0 0 15,15l98,0a15,15 0 0 0 15,-15l0,-60a15,15 0 0 0 -15,-15zm9,75a9,9 0 0 1 -9,9l-98,0a9,9 0 0 1 -9,-9l0,-60a9,9 0 0 1 9,-9l98,0a9,9 0 0 1 9,9l0,60z"/>
 </g>
</svg>