<svg width="60" height="60" xmlns="http://www.w3.org/2000/svg">
 <title/>
 <desc/>

 <g>
  <title>background</title>
  <rect fill="none" id="canvas_background" height="402" width="582" y="-1" x="-1"/>
 </g>
 <g>
  <title fill="#ffffff">Layer 1</title>
  <path fill="#ffffff" id="newspaper" d="m5,14c-0.552,0 -1,0.448 -1,1l0,34c0,0.552 0.448,1 1,1c0.552,0 1,-0.448 1,-1l0,-34c0,-0.552 -0.448,-1 -1,-1l0,0zm17,8c0,1.103 0.897,2 2,2c1.103,0 2,-0.897 2,-2c0,-1.103 -0.897,-2 -2,-2c-1.103,0 -2,0.897 -2,2l0,0zm-4,9c0,0.552 0.448,1 1,1l6,0c0.265,0 0.52,-0.105 0.707,-0.293l6.293,-6.293l2.293,2.293c0.391,0.391 1.023,0.391 1.414,0l4.293,-4.293l4.293,4.293c0.391,0.391 1.023,0.391 1.414,0c0.391,-0.391 0.391,-1.023 0,-1.414l-5,-5c-0.391,-0.391 -1.023,-0.391 -1.414,0l-4.293,4.293l-2.293,-2.293c-0.391,-0.391 -1.023,-0.391 -1.414,0l-6.707,6.707l-4.586,0l0,-12l28,0l0,12l-17,0c-0.552,0 -1,0.448 -1,1c0,0.552 0.448,1 1,1l18,0c0.552,0 1,-0.448 1,-1l0,-14c0,-0.552 -0.448,-1 -1,-1l-30,0c-0.552,0 -1,0.448 -1,1l0,14zm29,17l-10,0c-0.552,0 -1,0.448 -1,1c0,0.552 0.448,1 1,1l10,0c0.552,0 1,-0.448 1,-1c0,-0.552 -0.448,-1 -1,-1l0,0zm-28,2l10,0c0.552,0 1,-0.448 1,-1c0,-0.552 -0.448,-1 -1,-1l-10,0c-0.552,0 -1,0.448 -1,1c0,0.552 0.448,1 1,1l0,0zm28,-8l-10,0c-0.552,0 -1,0.448 -1,1c0,0.552 0.448,1 1,1l10,0c0.552,0 1,-0.448 1,-1c0,-0.552 -0.448,-1 -1,-1l0,0zm-28,2l12,0c0.552,0 1,-0.448 1,-1c0,-0.552 -0.448,-1 -1,-1l-12,0c-0.552,0 -1,0.448 -1,1c0,0.552 0.448,1 1,1l0,0zm31,-7c0,-0.552 -0.448,-1 -1,-1l-12,0c-0.552,0 -1,0.448 -1,1c0,0.552 0.448,1 1,1l12,0c0.552,0 1,-0.448 1,-1l0,0zm-1,-25c0.552,0 1,-0.448 1,-1c0,-0.552 -0.448,-1 -1,-1l-4,0c-0.552,0 -1,0.448 -1,1c0,0.552 0.448,1 1,1l4,0zm-30,0l16,0c0.552,0 1,-0.448 1,-1c0,-0.552 -0.448,-1 -1,-1l-16,0c-0.552,0 -1,0.448 -1,1c0,0.552 0.448,1 1,1l0,0zm0,26l10,0c0.552,0 1,-0.448 1,-1c0,-0.552 -0.448,-1 -1,-1l-10,0c-0.552,0 -1,0.448 -1,1c0,0.552 0.448,1 1,1l0,0zm41,-33l0,46c0,5.551 -3.449,9 -9,9l-42,0c-5.551,0 -9,-3.449 -9,-9l0,-38c0,-2.757 2.243,-5 5,-5c0.552,0 1,0.448 1,1c0,0.552 -0.448,1 -1,1c-1.654,0 -3,1.346 -3,3l0,38c0,4.449 2.551,7 7,7l42,0c4.449,0 7,-2.551 7,-7l0,-46c0,-1.654 -1.346,-3 -3,-3l-42,0c-1.598,0 -3,1.402 -3,3l0,48c0,0.552 -0.448,1 -1,1c-0.552,0 -1,-0.448 -1,-1l0,-48c0,-2.71 2.29,-5 5,-5l42,0c2.757,0 5,2.243 5,5l0,0z"/>
 </g>
</svg>