<?xml version="1.0" encoding="UTF-8" standalone="no"?>
<svg
   id="Layer_1"
   style="enable-background:new 0 0 30 30;"
   version="1.1"
   viewBox="0 0 30 30"
   xml:space="preserve"
   sodipodi:docname="3668833_maintenance_repair_service_icon.svg"
   inkscape:version="1.1 (c4e8f9ed74, 2021-05-24)"
   xmlns:inkscape="http://www.inkscape.org/namespaces/inkscape"
   xmlns:sodipodi="http://sodipodi.sourceforge.net/DTD/sodipodi-0.dtd"
   xmlns="http://www.w3.org/2000/svg"
   xmlns:svg="http://www.w3.org/2000/svg"><defs
     id="defs9" /><sodipodi:namedview
     id="namedview7"
     pagecolor="#ffffff"
     bordercolor="#666666"
     borderopacity="1.0"
     inkscape:pageshadow="2"
     inkscape:pageopacity="0.0"
     inkscape:pagecheckerboard="0"
     showgrid="false"
     inkscape:zoom="28.733333"
     inkscape:cx="14.982599"
     inkscape:cy="15"
     inkscape:window-width="1920"
     inkscape:window-height="1012"
     inkscape:window-x="0"
     inkscape:window-y="32"
     inkscape:window-maximized="1"
     inkscape:current-layer="Layer_1" /><style
     type="text/css"
     id="style2">
	.st0{fill:#FD6A7E;}
	.st1{fill:#17B978;}
	.st2{fill:#8797EE;}
	.st3{fill:#41A6F9;}
	.st4{fill:#37E0FF;}
	.st5{fill:#2FD9B9;}
	.st6{fill:#F498BD;}
	.st7{fill:#FFDF1D;}
	.st8{fill:#C6C9CC;}
</style><path
     class="st8"
     d="M6,9.3L3.9,5.8l1.4-1.4l3.5,2.1v1.4l3.6,3.6c0,0.1,0,0.2,0,0.3L11.1,13L7.4,9.3H6z M21,17.8c-0.3,0-0.5,0-0.8,0  c0,0,0,0,0,0c-0.7,0-1.3-0.1-1.9-0.2l-2.1,2.4l4.7,5.3c1.1,1.2,3,1.3,4.1,0.1c1.2-1.2,1.1-3-0.1-4.1L21,17.8z M24.4,14  c1.6-1.6,2.1-4,1.5-6.1c-0.1-0.4-0.6-0.5-0.8-0.2l-3.5,3.5l-2.8-2.8l3.5-3.5c0.3-0.3,0.2-0.7-0.2-0.8C20,3.4,17.6,3.9,16,5.6  c-1.8,1.8-2.2,4.6-1.2,6.8l-10,8.9c-1.2,1.1-1.3,3-0.1,4.1l0,0c1.2,1.2,3,1.1,4.1-0.1l8.9-10C19.9,16.3,22.6,15.9,24.4,14z"
     id="path4"
     style="fill:#dc143c;fill-opacity:1" /></svg>
